<?xml version="1.0" encoding="utf-8"?>
<!-- Generator: Adobe Illustrator 21.1.0, SVG Export Plug-In . SVG Version: 6.00 Build 0)  -->
<svg version="1.1" id="Layer_1" xmlns="http://www.w3.org/2000/svg" xmlns:xlink="http://www.w3.org/1999/xlink" x="0px" y="0px"
	 viewBox="0 0 44 44" style="enable-background:new 0 0 44 44;" xml:space="preserve">
<style type="text/css">
	.st0{fill:#FFFFFF;fill-opacity:0;}
</style>
<g id="Symbols">
	<g id="Group-3" transform="translate(-12.000000, -20.000000)">
		<g id="more">
			<rect id="Rectangle-4" x="12" y="20" class="st0" width="44" height="44"/>
			<path id="Combined-Shape" d="M26,44c-1.1,0-2-0.9-2-2s0.9-2,2-2s2,0.9,2,2S27.1,44,26,44z M34,44c-1.1,0-2-0.9-2-2s0.9-2,2-2
				s2,0.9,2,2S35.1,44,34,44z M42,44c-1.1,0-2-0.9-2-2s0.9-2,2-2s2,0.9,2,2S43.1,44,42,44z"/>
		</g>
	</g>
</g>
</svg>
